<?xml version="1.0" encoding="UTF-8"?>
<svg width="414px" height="398px" viewBox="0 0 414 398" version="1.1" xmlns="http://www.w3.org/2000/svg" xmlns:xlink="http://www.w3.org/1999/xlink">
    <!-- Generator: Sketch 63.1 (92452) - https://sketch.com -->
    <title>orchard-chiro-gray</title>
    <desc>Created with Sketch.</desc>
    <g id="orchard-chiro-gray" stroke="none" stroke-width="1" fill="none" fill-rule="evenodd">
        <path d="M207,0 C241.006881,0 273.098439,7.88354922 301.405071,21.8533007 C292.97474,29.9527871 281.173709,34 266,34 C240.666667,36.6666667 225.333333,50.6666667 220,76 L219.352045,72.7194833 C217.230435,62.1026207 215.491223,54.6676907 214.134407,50.4146933 L214,50 C209.010184,34.8547656 203.834559,28 202,28 C198,28 178,24 176,26 C174,28 172,28 172,34 C172,36.8329783 185.961351,37.7907455 198,54 C201.16546,58.2620854 204.355842,68.2216309 207.571145,83.8786365 L208,86 C143.934969,86 92,137.934969 92,202 C92,266.065031 143.934969,318 208,318 C272.065031,318 324,266.065031 324,202 C324,145.145977 283.098409,97.8450324 229.115226,87.9171641 L230,88 L235.164701,86.761779 C246.346371,84.1114749 253.958137,82.5242152 258,82 C269.201571,80.5471961 273.305955,82.4678565 284,80 C301.074627,76.0597015 310.386278,63.7095121 311.934952,42.9494319 L312,42 L311.061288,26.935927 C372.624065,61.4201067 414,125.564861 414,199 C414,308.904665 321.322943,398 207,398 C92.6770568,398 0,308.904665 0,199 C0,89.0953348 92.6770568,0 207,0 Z" id="Path" fill="#D1D5DB"></path>
    </g>
</svg>